# xmcd
#
# Track frame offsets:
#	150
#	14628
#	30545
#	41863
#	59608
#	76766
#	88646
#	100866
#	113388
#	126293
#	139896
#	158445
#	165027
#	177518
#	187303
#	198515
#	214966
#	226924
#	235717
#	249737
#	261515
#
# Disc length: 3663 seconds
#
# Revision: 0
# Processed by: cddbd v1.5.2PL0 Copyright (c) Steve Scherf et al.
# Submitted via: EZCDAudioConverter 1.3.4.1
#
DISCID=210e4d15
DTITLE=Kate and Anna McGarrigle - Tell My Sister 3/3
DYEAR=1900
DGENRE=
TTITLE0=The Work Song
TTITLE1=Come Back Baby
TTITLE2=Jigsaw Puzzle Of Life
TTITLE3=Saratoga Summer Song
TTITLE4=Annie
TTITLE5=On My Way To Town
TTITLE6=Roses Blanches
TTITLE7=Heart Like A Wheel
TTITLE8=Kiss And Say Goodbye
TTITLE9=Southern Boys
TTITLE10=Willie Moore
TTITLE11=Oliver, Remember Me?
TTITLE12=My Town
TTITLE13=Blues In E
TTITLE14=Walking Song
TTITLE15=Tell My Sister
TTITLE16=Over The Hill
TTITLE17=Come A Long Way
TTITLE18=(Talk To Me Of) Mendocino
TTITLE19=Heart Like A Wheel
TTITLE20=(Talk To Me Of) Mendocino
EXTD=
EXTT0=
EXTT1=
EXTT2=
EXTT3=
EXTT4=
EXTT5=
EXTT6=
EXTT7=
EXTT8=
EXTT9=
EXTT10=
EXTT11=
EXTT12=
EXTT13=
EXTT14=
EXTT15=
EXTT16=
EXTT17=
EXTT18=
EXTT19=
EXTT20=
PLAYORDER=
